P3
30 30
255
0 0 0  0 0 0  0 0 0  0 0 0  0 0 0  0 0 0
0 0 0  0 0 0  0 0 0  0 0 0  0 0 0  0 0 0
0 0 0  0 0 0  0 0 0  0 0 0  0 0 0  0 0 0
0 0 0  0 0 0  0 0 0  0 0 0  0 0 0  0 0 0
0 0 0  0 0 0  0 0 0  0 0 0  0 0 0  0 0 0
0 0 0  2 2 2  0 0 0  0 0 0  0 0 0  1 1 1
1 1 1  1 1 1  1 1 1  1 1 1  1 1 1  3 3 3
2 2 2  4 4 4  2 2 2  2 2 2  1 1 1  1 1 1
1 1 1  2 2 2  3 3 3  1 1 1  2 2 2  3 3 3
3 3 3  1 1 1  1 1 1  1 1 1  12 12 12  0 0 0
0 0 0  1 1 1  0 0 0  1 1 1  0 0 0  0 0 0
0 0 0  0 0 0  0 0 0  0 0 0  0 0 0  0 0 0
0 0 0  0 0 0  0 0 0  0 0 0  0 0 0  0 0 0
0 0 0  0 0 0  0 0 0  0 0 0  0 0 0  0 0 0
0 0 0  0 0 0  0 0 0  0 0 0  0 0 0  0 0 0
0 0 0  0 0 0  0 0 0  0 0 0  0 0 0  0 0 0
1 1 1  1 1 1  1 1 1  1 1 1  1 1 1  1 1 1
1 1 1  1 1 1  2 2 2  2 2 2  1 1 1  1 1 1
1 1 1  2 2 2  3 3 3  1 1 1  1 1 1  1 1 1
1 1 1  1 1 1  1 1 1  1 1 1  0 0 0  0 0 0
0 0 0  0 0 0  0 0 0  1 1 1  1 1 1  0 0 0
0 0 0  0 0 0  0 0 0  0 0 0  0 0 0  0 0 0
0 0 0  0 0 0  2 2 2  7 7 7  1 1 1  1 1 1
1 1 1  1 1 1  1 1 1  0 0 0  0 0 0  0 0 0
0 0 0  0 0 0  0 0 0  3 3 3  0 0 0  0 0 0
0 0 0  0 0 0  0 0 0  0 0 0  0 0 0  0 0 0
1 1 1  1 1 1  1 1 1  1 1 1  1 1 1  1 1 1
1 1 1  0 0 0  0 0 0  0 0 0  0 0 0  0 0 0
0 0 0  0 0 0  0 0 0  0 0 0  1 1 1  0 0 0
0 0 0  1 1 1  0 0 0  1 1 1  0 0 0  0 0 0
0 0 0  0 0 0  0 0 0  0 0 0  1 1 1  0 0 0
0 0 0  0 0 0  0 0 0  0 0 0  0 0 0  0 0 0
0 0 0  0 0 0  0 0 0  0 0 0  0 0 0  0 0 0
0 0 0  0 0 0  0 0 0  0 0 0  0 0 0  0 0 0
0 0 0  0 0 0  0 0 0  0 0 0  0 0 0  0 0 0
0 0 0  0 0 0  0 0 0  0 0 0  0 0 0  0 0 0
1 1 1  0 0 0  0 0 0  0 0 0  0 0 0  0 0 0
0 0 0  0 0 0  0 0 0  0 0 0  0 0 0  0 0 0
0 0 0  0 0 0  0 0 0  0 0 0  0 0 0  0 0 0
0 0 0  0 0 0  0 0 0  0 0 0  0 0 0  0 0 0
0 0 0  0 0 0  1 1 1  0 0 0  0 0 0  1 1 1
0 0 0  0 0 0  1 1 1  4 4 4  1 1 1  1 1 1
2 2 2  1 1 1  7 7 7  1 1 1  1 1 1  1 1 1
7 7 7  4 4 4  1 1 1  1 1 1  1 1 1  1 1 1
0 0 0  1 1 1  1 1 1  0 0 0  0 0 0  0 0 0
0 0 0  0 0 0  1 1 1  0 0 0  0 0 0  0 0 0
0 0 0  1 1 1  158 158 158  255 255 255  254 254 254  254 254 254
254 254 254  254 254 254  254 254 254  254 254 254  253 253 253  254 254 254
254 254 254  254 254 254  254 254 254  254 254 254  254 254 254  1 1 1
0 0 0  1 1 1  0 0 0  0 0 0  0 0 0  0 0 0
0 0 0  0 0 0  1 1 1  0 0 0  1 1 1  0 0 0
0 0 0  1 1 1  132 132 132  255 255 255  255 255 255  255 255 255
255 255 255  255 255 255  255 255 255  255 255 255  255 255 255  255 255 255
255 255 255  255 255 255  255 255 255  255 255 255  142 142 142  1 1 1
0 0 0  1 1 1  0 0 0  0 0 0  0 0 0  0 0 0
0 0 0  0 0 0  0 0 0  0 0 0  0 0 0  0 0 0
0 0 0  0 0 0  2 2 2  254 254 254  255 255 255  255 255 255
255 255 255  255 255 255  255 255 255  255 255 255  255 255 255  255 255 255
255 255 255  255 255 255  255 255 255  204 204 204  1 1 1  0 0 0
0 0 0  0 0 0  0 0 0  0 0 0  0 0 0  0 0 0
0 0 0  0 0 0  0 0 0  0 0 0  0 0 0  0 0 0
0 0 0  0 0 0  1 1 1  112 112 112  255 255 255  255 255 255
255 255 255  255 255 255  255 255 255  255 255 255  255 255 255  255 255 255
255 255 255  255 255 255  255 255 255  23 23 23  0 0 0  0 0 0
0 0 0  0 0 0  0 0 0  0 0 0  0 0 0  0 0 0
0 0 0  0 0 0  0 0 0  0 0 0  0 0 0  0 0 0
1 1 1  0 0 0  0 0 0  1 1 1  202 202 202  255 255 255
255 255 255  255 255 255  255 255 255  255 255 255  255 255 255  255 255 255
255 255 255  255 255 255  153 153 153  1 1 1  0 0 0  1 1 1
0 0 0  0 0 0  0 0 0  0 0 0  0 0 0  0 0 0
0 0 0  1 1 1  0 0 0  0 0 0  0 0 0  0 0 0
1 1 1  0 0 0  0 0 0  0 0 0  6 6 6  254 254 254
255 255 255  255 255 255  255 255 255  255 255 255  255 255 255  255 255 255
255 255 255  255 255 255  2 2 2  0 0 0  0 0 0  0 0 0
0 0 0  0 0 0  0 0 0  0 0 0  0 0 0  0 0 0
0 0 0  1 1 1  0 0 0  0 0 0  0 0 0  0 0 0
1 1 1  1 1 1  0 0 0  0 0 0  0 0 0  86 86 86
254 254 254  255 255 255  255 255 255  255 255 255  255 255 255  255 255 255
255 255 255  177 177 177  1 1 1  0 0 0  1 1 1  0 0 0
0 0 0  0 0 0  0 0 0  0 0 0  0 0 0  0 0 0
0 0 0  1 1 1  0 0 0  0 0 0  0 0 0  0 0 0
1 1 1  1 1 1  0 0 0  0 0 0  0 0 0  1 1 1
242 242 242  255 255 255  255 255 255  255 255 255  255 255 255  255 255 255
255 255 255  7 7 7  0 0 0  0 0 0  0 0 0  0 0 0
0 0 0  0 0 0  0 0 0  0 0 0  0 0 0  0 0 0
0 0 0  1 1 1  0 0 0  1 1 1  0 0 0  0 0 0
0 0 0  4 4 4  1 1 1  0 0 0  0 0 0  0 0 0
41 41 41  254 254 254  255 255 255  255 255 255  255 255 255  254 254 254
175 175 175  1 1 1  0 0 0  0 0 0  0 0 0  0 0 0
0 0 0  0 0 0  0 0 0  1 1 1  0 0 0  0 0 0
0 0 0  1 1 1  0 0 0  1 1 1  0 0 0  0 0 0
0 0 0  0 0 0  1 1 1  0 0 0  0 0 0  0 0 0
1 1 1  225 225 225  255 255 255  255 255 255  255 255 255  152 152 152
1 1 1  0 0 0  0 0 0  0 0 0  0 0 0  0 0 0
0 0 0  0 0 0  0 0 0  1 1 1  0 0 0  0 0 0
0 0 0  1 1 1  0 0 0  0 0 0  0 0 0  0 0 0
0 0 0  0 0 0  0 0 0  1 1 1  0 0 0  0 0 0
0 0 0  55 55 55  254 254 254  255 255 255  255 255 255  1 1 1
0 0 0  0 0 0  0 0 0  0 0 0  0 0 0  0 0 0
0 0 0  1 1 1  0 0 0  1 1 1  0 0 0  0 0 0
0 0 0  1 1 1  0 0 0  0 0 0  0 0 0  0 0 0
0 0 0  0 0 0  0 0 0  1 1 1  1 1 1  0 0 0
0 0 0  1 1 1  180 180 180  255 255 255  160 160 160  1 1 1
0 0 0  0 0 0  0 0 0  0 0 0  0 0 0  0 0 0
1 1 1  0 0 0  1 1 1  6 6 6  0 0 0  0 0 0
0 0 0  1 1 1  0 0 0  0 0 0  0 0 0  0 0 0
0 0 0  1 1 1  0 0 0  0 0 0  2 2 2  1 1 1
0 0 0  0 0 0  20 20 20  111 111 111  19 19 19  0 0 0
0 0 0  0 0 0  0 0 0  0 0 0  0 0 0  0 0 0
2 2 2  0 0 0  5 5 5  6 6 6  0 0 0  0 0 0
0 0 0  1 1 1  0 0 0  0 0 0  0 0 0  0 0 0
0 0 0  0 0 0  0 0 0  0 0 0  0 0 0  1 1 1
0 0 0  0 0 0  0 0 0  0 0 0  0 0 0  0 0 0
0 0 0  0 0 0  0 0 0  0 0 0  0 0 0  0 0 0
1 1 1  0 0 0  5 5 5  3 3 3  0 0 0  0 0 0
0 0 0  1 1 1  0 0 0  0 0 0  1 1 1  0 0 0
0 0 0  0 0 0  0 0 0  0 0 0  0 0 0  0 0 0
0 0 0  0 0 0  0 0 0  1 1 1  0 0 0  0 0 0
0 0 0  0 0 0  0 0 0  0 0 0  0 0 0  0 0 0
0 0 0  0 0 0  1 1 1  1 1 1  0 0 0  0 0 0
0 0 0  1 1 1  0 0 0  0 0 0  1 1 1  0 0 0
1 1 1  0 0 0  1 1 1  0 0 0  0 0 0  0 0 0
0 0 0  0 0 0  0 0 0  0 0 0  0 0 0  1 1 1
0 0 0  1 1 1  0 0 0  0 0 0  0 0 0  0 0 0
0 0 0  0 0 0  1 1 1  0 0 0  0 0 0  0 0 0
0 0 0  1 1 1  0 0 0  0 0 0  0 0 0  0 0 0
1 1 1  0 0 0  0 0 0  0 0 0  0 0 0  0 0 0
0 0 0  0 0 0  0 0 0  0 0 0  0 0 0  0 0 0
0 0 0  0 0 0  0 0 0  0 0 0  0 0 0  0 0 0
0 0 0  0 0 0  0 0 0  0 0 0  1 1 1  0 0 0
0 0 0  2 2 2  0 0 0  1 1 1  0 0 0  0 0 0
0 0 0  0 0 0  0 0 0  0 0 0  0 0 0  0 0 0
0 0 0  0 0 0  0 0 0  0 0 0  0 0 0  0 0 0
0 0 0  0 0 0  0 0 0  0 0 0  0 0 0  0 0 0
0 0 0  0 0 0  0 0 0  0 0 0  1 1 1  0 0 0
0 0 0  1 1 1  0 0 0  0 0 0  0 0 0  0 0 0
0 0 0  0 0 0  1 1 1  1 1 1  1 1 1  0 0 0
0 0 0  0 0 0  0 0 0  0 0 0  0 0 0  0 0 0
0 0 0  0 0 0  0 0 0  1 1 1  2 2 2  1 1 1
1 1 1  1 1 1  1 1 1  0 0 0  1 1 1  0 0 0
0 0 0  4 4 4  0 0 0  1 1 1  1 1 1  1 1 1
0 0 0  0 0 0  0 0 0  0 0 0  0 0 0  0 0 0
1 1 1  7 7 7  7 7 7  1 1 1  7 7 7  2 2 2
0 0 0  0 0 0  0 0 0  0 0 0  0 0 0  0 0 0
0 0 0  0 0 0  0 0 0  0 0 0  1 1 1  0 0 0
0 0 0  0 0 0  0 0 0  0 0 0  0 0 0  0 0 0
0 0 0  0 0 0  0 0 0  0 0 0  0 0 0  0 0 0
0 0 0  0 0 0  0 0 0  0 0 0  0 0 0  0 0 0
0 0 0  0 0 0  0 0 0  0 0 0  0 0 0  0 0 0
0 0 0  0 0 0  0 0 0  0 0 0  0 0 0  0 0 0
